<?xml version='1.0' encoding='iso-8859-1'?>
<svg version="1.1" xmlns="http://www.w3.org/2000/svg" viewBox="0 0 137.144 137.144" xmlns:xlink="http://www.w3.org/1999/xlink" enable-background="new 0 0 137.144 137.144">
  <g>
    <g>
      <path d="M109.715,0H27.429C12.28,0,0,12.28,0,27.429v82.286c0,15.149,12.28,27.429,27.429,27.429h82.286    c15.148,0,27.429-12.28,27.429-27.429V27.429C137.144,12.28,124.864,0,109.715,0z M123.43,102.858    c0,11.362-9.21,20.572-20.571,20.572H34.286c-11.362,0-20.572-9.21-20.572-20.572V34.286c0-11.362,9.21-20.572,20.572-20.572    h68.572c11.361,0,20.571,9.21,20.571,20.572V102.858z M75.429,34.286c0-3.787-3.07-6.857-6.858-6.857    c-3.787,0-6.857,3.07-6.857,6.857V48L27.429,68.572v6.857l34.286-6.857v20.571l-13.714,13.714v6.857l20.571-6.857l20.572,6.857    v-6.857L75.429,89.144V68.572l34.286,6.857v-6.857L75.429,48V34.286z"/>
    </g>
  </g>
</svg>
